PathFileType	4	(X/Y/Z)	C:/Users/opensim2020/Desktop/walking_exp_matlab/subject02_walking15_straight_03.trc	
DataRate	CameraRate	NumFrames	NumMarkers	Units	OrigDataRate	OrigDataStartFrame	OrigNumFrames	
100.00	100.00	6	42	mm	100.00	1278	103	
Frame#	Time	LFHD			RFHD			LBHD			RBHD			C7			T10			CLAV			STRN			RBAK			LSHO			LUPA			LELB			LFRM			LWRA			LWRB			LFIN			RSHO			RUPA			RELB			RFRM			RWRA			RWRB			RFIN			LASI			RASI			LPSI			RPSI			LTHI			LKNE			LTIB			LANK			LHEE			LTOE			RTHI			RKNE			RTIB			RANK			RHEE			RTOE			*39			*40			*41			
		X1	Y1	Z1	X2	Y2	Z2	X3	Y3	Z3	X4	Y4	Z4	X5	Y5	Z5	X6	Y6	Z6	X7	Y7	Z7	X8	Y8	Z8	X9	Y9	Z9	X10	Y10	Z10	X11	Y11	Z11	X12	Y12	Z12	X13	Y13	Z13	X14	Y14	Z14	X15	Y15	Z15	X16	Y16	Z16	X17	Y17	Z17	X18	Y18	Z18	X19	Y19	Z19	X20	Y20	Z20	X21	Y21	Z21	X22	Y22	Z22	X23	Y23	Z23	X24	Y24	Z24	X25	Y25	Z25	X26	Y26	Z26	X27	Y27	Z27	X28	Y28	Z28	X29	Y29	Z29	X30	Y30	Z30	X31	Y31	Z31	X32	Y32	Z32	X33	Y33	Z33	X34	Y34	Z34	X35	Y35	Z35	X36	Y36	Z36	X37	Y37	Z37	X38	Y38	Z38	X39	Y39	Z39	X40	Y40	Z40	X41	Y41	Z41	X42	Y42	Z42	

1	0.000	1362.56714	-715.08704	1711.69873	1506.43604	-727.05853	1704.06909	1349.49414	-852.89905	1654.13184	1490.93005	-878.00751	1646.57983	1421.46802	-931.51324	1521.08704	1437.87610	-999.21033	1247.71936	1426.33667	-798.20233	1447.09778	1450.97278	-753.56897	1274.90833	1492.90747	-1004.94714	1354.02283	1250.61841	-853.14386	1479.85571	1176.92139	-859.60254	1275.90234	1167.49414	-854.50598	1133.23865	1169.12573	-815.62909	1004.69904	1204.70886	-729.58966	904.46143	1183.55896	-777.77673	888.61029	1175.25061	-742.55658	836.34454	1610.38611	-876.37811	1500.61353	1727.39526	-908.90552	1330.84924	1775.24744	-892.37811	1190.40820	1814.22925	-849.66687	1083.39893	1818.35425	-782.64398	966.09442	1846.65796	-829.89856	957.92621	1865.65503	-781.27173	908.65118	1344.05249	-774.21198	976.94513	1596.76013	-805.31439	977.21234	1396.31738	-985.65283	1027.55652	1509.13721	-1004.52612	1038.34766	1299.05371	-761.79657	664.44110	1342.22656	-729.14594	485.47858	1352.98145	-854.43793	352.48032	1396.17334	-957.67334	158.45581	1450.23657	-1000.32764	150.78770	1391.75793	-843.74017	57.75519	1667.73291	-926.14056	679.10651	1642.11755	-948.20905	467.11679	1655.45227	-1008.83069	288.86667	1630.01538	-1035.65991	92.84361	1576.05750	-1065.82678	35.45665	1668.29858	-888.61426	33.91918	1440.49219	-812.01245	1796.13269						 
2	0.010	1365.19727	-703.51038	1711.34631	1509.15186	-713.95026	1703.60913	1353.62244	-841.54089	1653.55872	1495.31555	-864.99835	1645.99036	1426.53345	-919.26465	1520.84009	1444.13000	-988.09094	1248.03406	1429.79565	-786.22943	1446.36108	1453.94141	-742.39636	1273.83582	1499.44128	-992.57892	1354.57190	1254.79358	-843.08453	1479.23560	1179.43030	-853.59631	1275.95068	1168.37671	-850.63623	1133.68347	1166.45605	-815.89606	1003.81213	1196.68494	-731.80780	899.83392	1177.16113	-782.15247	886.45258	1166.55444	-749.10510	832.74872	1614.46631	-861.71997	1500.39355	1733.13538	-890.90057	1331.54260	1781.76184	-871.79504	1191.31165	1819.98401	-826.40662	1085.01819	1822.93030	-757.06879	969.01129	1852.62610	-803.54242	960.21692	1870.49036	-753.67999	911.79541	1348.84949	-763.95422	978.12054	1600.63037	-794.56195	975.90002	1400.42920	-975.57697	1027.70789	1513.40173	-993.39764	1037.90955	1301.34143	-747.93756	666.39020	1345.78186	-711.39001	486.10199	1358.95239	-829.44275	344.92780	1407.46472	-921.03259	146.82587	1462.35278	-963.11261	137.73544	1401.10742	-801.90753	54.38413	1669.27051	-919.02673	678.42511	1642.94519	-944.24286	466.86130	1655.75146	-1006.47571	289.04681	1629.86328	-1035.18262	93.23714	1575.72351	-1065.65027	36.05672	1668.39355	-888.60413	33.77024	1444.17786	-799.75110	1795.61353						 
3	0.020	1367.69934	-692.01855	1710.47217	1511.79431	-700.84674	1702.74658	1357.62537	-830.09100	1652.78271	1499.51428	-851.98297	1645.13892	1431.39868	-906.84637	1520.17346	1449.98914	-976.79596	1248.03687	1433.13184	-774.17560	1445.29297	1457.46106	-730.29376	1272.63367	1505.54980	-979.94452	1354.52209	1258.76404	-832.80048	1478.21545	1182.41052	-846.09479	1275.54565	1169.19958	-846.48926	1133.87634	1163.50452	-816.16284	1003.11603	1188.66113	-735.16632	895.61121	1170.67993	-786.38562	884.28851	1158.48877	-755.66138	829.43500	1618.43481	-847.07446	1499.73340	1738.51965	-873.05945	1331.71423	1787.98877	-851.26343	1191.79895	1825.62036	-803.17249	1086.48743	1827.35718	-731.59766	971.88287	1858.22449	-777.27710	962.31433	1875.13159	-726.08496	914.85352	1353.34351	-753.41431	978.44684	1604.35803	-783.89709	974.20245	1404.26709	-965.30524	1027.47705	1517.40259	-982.23358	1037.19812	1303.63550	-734.43726	667.75659	1349.31262	-694.34222	486.31131	1365.03748	-804.21960	336.96899	1417.79626	-884.43219	135.77602	1473.02856	-924.61261	123.81490	1409.25586	-759.50391	51.50053	1670.90173	-911.04449	677.13086	1643.66052	-940.13129	466.25610	1655.99927	-1004.06812	289.16043	1629.67517	-1034.52209	93.67715	1575.39929	-1065.25098	36.48437	1668.58923	-888.36798	33.73413	1447.74561	-787.34045	1794.79089						 
4	0.030	1370.32532	-680.18762	1709.54956	1514.32678	-687.62567	1701.65027	1361.45544	-818.46387	1651.72900	1503.56677	-838.88715	1644.05640	1436.05347	-894.51379	1519.39355	1455.39343	-965.38110	1247.71912	1436.19409	-762.21191	1443.85388	1460.36279	-718.85101	1270.99780	1511.62158	-967.54749	1354.55664	1262.56238	-822.27576	1476.93298	1184.80469	-839.18018	1275.05847	1169.94495	-842.19647	1133.96558	1160.51147	-816.45032	1002.52087	1181.05908	-738.69116	891.85803	1164.49841	-790.88000	882.66467	1150.52490	-762.30341	826.84222	1622.25806	-832.46460	1498.64246	1743.45898	-855.26801	1331.32507	1793.77063	-830.90594	1192.07874	1830.69385	-780.07202	1087.72522	1831.57031	-706.24414	974.44464	1863.45215	-751.16278	964.27368	1879.33948	-698.69318	917.74127	1357.43652	-742.79468	977.91797	1608.12402	-773.18701	972.20514	1407.86865	-954.80658	1026.98230	1521.05212	-971.10864	1036.33667	1305.95569	-721.18591	668.63141	1352.76428	-678.25543	486.24203	1371.12292	-779.07452	329.17987	1427.41223	-846.57666	124.75594	1483.79944	-885.04150	110.84625	1416.29895	-716.57391	49.32923	1672.74353	-902.75757	675.73828	1644.23279	-935.65771	465.47537	1656.20898	-1001.57294	289.32498	1629.38196	-1033.72717	94.10046	1574.80566	-1064.77722	36.96448	1668.82373	-888.06213	33.62800	1451.20251	-774.86426	1793.67200						 
5	0.040	1372.60083	-668.40558	1708.14331	1516.81152	-674.39789	1700.29968	1365.22205	-806.82428	1650.50391	1507.44019	-825.77356	1642.68420	1440.51563	-881.96539	1518.27502	1460.27332	-953.68542	1246.98413	1439.43701	-749.70673	1442.29370	1463.37866	-706.96667	1269.22217	1517.24561	-954.95862	1354.11328	1266.18652	-811.46161	1475.32983	1187.31995	-832.03699	1274.16406	1170.66235	-837.73676	1133.92395	1157.68384	-816.90027	1002.48962	1173.89111	-742.36774	888.26703	1158.59961	-794.86011	881.30481	1142.69104	-769.03314	824.83496	1626.10339	-818.02979	1497.57886	1748.07520	-837.72095	1330.59167	1799.16687	-810.68115	1192.06628	1835.68799	-757.24811	1088.82019	1835.35815	-681.23828	977.00720	1868.24609	-725.24396	966.11572	1883.11902	-671.80115	920.62006	1360.99902	-731.94482	976.76361	1611.61536	-762.32910	969.96704	1411.23083	-944.06317	1026.19043	1524.50830	-959.92700	1035.33569	1308.28979	-708.25464	669.23938	1356.15076	-663.09387	485.71509	1376.99646	-754.29059	321.69391	1436.06091	-807.82104	113.91660	1493.36365	-844.09442	97.37653	1422.49414	-673.24323	47.94372	1674.58606	-894.04681	674.05432	1644.93262	-930.99207	464.74603	1656.29663	-998.98462	289.48279	1628.99670	-1032.93030	94.58301	1574.21838	-1064.20996	37.65563	1668.85730	-887.91779	33.16501	1454.57642	-762.26031	1792.36926						 
6	0.050	1374.96631	-656.50446	1706.69043	1519.18103	-661.25317	1698.72656	1368.76282	-794.89435	1648.99915	1511.14270	-812.60199	1641.06519	1444.69653	-869.34711	1516.76770	1464.72290	-941.80371	1245.88086	1442.40906	-737.24390	1440.51184	1466.05310	-695.16119	1267.12891	1522.40723	-942.28143	1353.21887	1269.63647	-800.40643	1473.46448	1189.54272	-825.21368	1273.48633	1171.37622	-832.82104	1133.82214	1154.98022	-816.60461	1001.98999	1167.25952	-746.20758	885.21240	1152.38940	-800.15106	880.51361	1135.52380	-774.94281	823.10095	1629.47559	-803.45245	1495.73328	1752.45422	-820.49670	1329.81702	1804.15479	-790.55969	1191.86938	1840.19446	-734.66534	1089.79724	1838.66882	-656.43268	979.49896	1872.70923	-699.64740	967.92334	1886.64734	-645.03510	923.57056	1364.03870	-721.00867	974.87115	1614.98352	-751.24451	967.46600	1414.36157	-933.13806	1025.14697	1527.66113	-948.39856	1034.01160	1310.52124	-695.40906	669.37042	1359.75635	-648.65033	484.49915	1382.61926	-730.09998	314.66904	1443.36707	-768.86426	103.84777	1501.12085	-802.99530	85.47833	1427.91345	-629.75757	47.23265	1676.57837	-885.49664	672.61340	1645.58167	-926.09021	463.97546	1656.30164	-996.29266	289.60001	1628.55371	-1032.14282	95.16705	1573.61975	-1063.62158	38.50685	1669.15442	-887.83093	32.95214	1457.87219	-749.62317	1790.81580	-3356.95801	2845.96533	1034.41675			 
